# xmcd
#
# Track frame offsets: 
#        150
#        15582
#        31736
#        46096
#        55332
#        72139
#        88869
#        102303
#        116617
#        136504
#        158628
#        181119
#        198049
#        221953
#        234554
#        261269
#        297346
#        330747
#
# Disc length: 4644 seconds
#
# Revision: 2
# Processed by: cddbd v1.5.2PL0 Copyright (c) Steve Scherf et al.
# Submitted via: ExactAudioCopy v0.99pb3
#
DISCID=f5122212
DTITLE=The Lines - Memory Span
DYEAR=2008
DGENRE=Alternative
TTITLE0=White Night
TTITLE1=On the Air
TTITLE2=Not Through Windows
TTITLE3=Dance for a Drop of Blood
TTITLE4=Blisstability
TTITLE5=Uneasy Affair
TTITLE6=Don't Need Surgery
TTITLE7=2 Split Seconds
TTITLE8=False Alarm
TTITLE9=Background
TTITLE10=Cool Snap
TTITLE11=Nerve Pylon
TTITLE12=Over the Brow
TTITLE13=Transit
TTITLE14=Part II
TTITLE15=House of Cracks
TTITLE16=Old Town
TTITLE17=Barbican
EXTD=
EXTT0=
EXTT1=
EXTT2=
EXTT3=
EXTT4=
EXTT5=
EXTT6=
EXTT7=
EXTT8=
EXTT9=
EXTT10=
EXTT11=
EXTT12=
EXTT13=
EXTT14=
EXTT15=
EXTT16=
EXTT17=
PLAYORDER=
